<svg width="222" height="93" viewBox="0 0 222 93" fill="none" xmlns="http://www.w3.org/2000/svg">
<path d="M198.248 67.9898L204.979 18.1755H200.604L193.872 63.9508H189.165L188.542 67.9898H198.248Z" fill="#CAAA00"/>
<path d="M63.2777 67.9898H188.542L189.165 63.9508H34.4532L35.5257 67.9898H63.2777Z" fill="#CAAA00"/>
<path d="M43.8434 72.5895L75.3947 86.8385L66.6948 73.3052L43.8434 72.5895Z" fill="#DEBC08"/>
<path d="M43.8434 72.5895L66.6948 73.3052L63.2777 67.9898H35.5257L35.7802 68.9481L43.8434 72.5895Z" fill="#DEBC08"/>
<path d="M196.223 18.1755H22.2982L34.4532 63.9508H189.165L196.223 18.1755Z" fill="#FFD600"/>
<path d="M193.872 63.9508L200.604 18.1755H196.223L189.165 63.9508H193.872Z" fill="#FFD600"/>
<path d="M200.75 69.7568L217.712 75.1512L202.423 87.4767L200.75 69.7568Z" fill="black"/>
<path d="M201.351 67.3486L204.483 58.7444L210.44 66.2432L201.351 67.3486Z" fill="black"/>
<path d="M12.6924 1.00437L20.4382 17.8997L1.93353 16.1601L12.6924 1.00437Z" fill="black"/>
<path d="M23.5471 15.167L23.4955 5.48422L31.9561 10.3662L23.5471 15.167Z" fill="black"/>
<path d="M8.36851 22.4727L17.495 20.8241L14.5144 29.4181L8.36851 22.4727Z" fill="black"/>
<path d="M187.704 73.6322L195.915 70.5118L194.206 79.5385L187.704 73.6322Z" fill="black"/>
<mask id="path-8-outside-1_4_409" maskUnits="userSpaceOnUse" x="32.9852" y="27.1755" width="162" height="32" fill="black">
<rect fill="white" x="32.9852" y="27.1755" width="162" height="32"/>
<path d="M52.1792 58.1837L48.7249 54.0451C47.769 54.2841 46.7914 54.4036 45.792 54.4036C43.663 54.4036 41.7078 53.9039 39.9263 52.9046C38.1449 51.9052 36.7327 50.5257 35.6899 48.766C34.6471 46.9845 34.1258 44.975 34.1258 42.7373C34.1258 40.5214 34.6471 38.5335 35.6899 36.7738C36.7327 34.9924 38.1449 33.602 39.9263 32.6026C41.7078 31.6033 43.663 31.1036 45.792 31.1036C47.9428 31.1036 49.8981 31.6033 51.6578 32.6026C53.4392 33.602 54.8405 34.9924 55.8616 36.7738C56.9044 38.5335 57.4258 40.5214 57.4258 42.7373C57.4258 44.7577 56.9913 46.6043 56.1223 48.2772C55.275 49.9283 54.1127 51.2752 52.6354 52.318L57.8494 58.1837H52.1792ZM38.8183 42.7373C38.8183 44.258 39.1116 45.5941 39.6982 46.7455C40.2848 47.897 41.0995 48.7877 42.1423 49.4177C43.2068 50.026 44.4234 50.3302 45.792 50.3302C47.1607 50.3302 48.3664 50.026 49.4092 49.4177C50.452 48.7877 51.2667 47.897 51.8533 46.7455C52.4399 45.5941 52.7332 44.258 52.7332 42.7373C52.7332 41.2165 52.4399 39.8913 51.8533 38.7616C51.2667 37.6102 50.452 36.7303 49.4092 36.1221C48.3664 35.5138 47.1607 35.2096 45.792 35.2096C44.4234 35.2096 43.2068 35.5138 42.1423 36.1221C41.0995 36.7303 40.2848 37.6102 39.6982 38.7616C39.1116 39.8913 38.8183 41.2165 38.8183 42.7373ZM77.9268 36.1221V54.1755H73.332V51.8944C72.7454 52.6765 71.9742 53.2956 71.0183 53.7518C70.0841 54.1863 69.063 54.4036 67.955 54.4036C66.5429 54.4036 65.2937 54.1103 64.2075 53.5237C63.1212 52.9154 62.2631 52.0356 61.6331 50.8841C61.0248 49.711 60.7206 48.3206 60.7206 46.713V36.1221H65.2829V46.0612C65.2829 47.4951 65.6413 48.603 66.3583 49.3851C67.0752 50.1455 68.0528 50.5257 69.2911 50.5257C70.5512 50.5257 71.5397 50.1455 72.2566 49.3851C72.9735 48.603 73.332 47.4951 73.332 46.0612V36.1221H77.9268ZM84.7419 33.9713C83.9381 33.9713 83.2646 33.7214 82.7215 33.2218C82.2001 32.7004 81.9394 32.0595 81.9394 31.2991C81.9394 30.5387 82.2001 29.9087 82.7215 29.409C83.2646 28.8876 83.9381 28.6269 84.7419 28.6269C85.5457 28.6269 86.2083 28.8876 86.7297 29.409C87.2728 29.9087 87.5444 30.5387 87.5444 31.2991C87.5444 32.0595 87.2728 32.7004 86.7297 33.2218C86.2083 33.7214 85.5457 33.9713 84.7419 33.9713ZM86.9904 36.1221V54.1755H82.4282V36.1221H86.9904ZM95.6691 50.4279H103.718V54.1755H90.4877V50.4931L98.3739 39.8696H90.5203V36.1221H103.62V39.8044L95.6691 50.4279ZM130.495 31.4295V35.1118H124.433V54.1755H119.871V35.1118H113.81V31.4295H130.495ZM136.137 33.9713C135.333 33.9713 134.66 33.7214 134.117 33.2218C133.595 32.7004 133.335 32.0595 133.335 31.2991C133.335 30.5387 133.595 29.9087 134.117 29.409C134.66 28.8876 135.333 28.6269 136.137 28.6269C136.941 28.6269 137.604 28.8876 138.125 29.409C138.668 29.9087 138.94 30.5387 138.94 31.2991C138.94 32.0595 138.668 32.7004 138.125 33.2218C137.604 33.7214 136.941 33.9713 136.137 33.9713ZM138.386 36.1221V54.1755H133.823V36.1221H138.386ZM165.313 35.8614C167.529 35.8614 169.311 36.5457 170.658 37.9144C172.026 39.2613 172.711 41.1514 172.711 43.5846V54.1755H168.148V44.2037C168.148 42.7916 167.79 41.7162 167.073 40.9776C166.356 40.2172 165.378 39.837 164.14 39.837C162.902 39.837 161.913 40.2172 161.175 40.9776C160.458 41.7162 160.099 42.7916 160.099 44.2037V54.1755H155.537V44.2037C155.537 42.7916 155.179 41.7162 154.462 40.9776C153.745 40.2172 152.767 39.837 151.529 39.837C150.269 39.837 149.269 40.2172 148.531 40.9776C147.814 41.7162 147.455 42.7916 147.455 44.2037V54.1755H142.893V36.1221H147.455V38.3054C148.042 37.545 148.791 36.9476 149.704 36.5131C150.638 36.0786 151.659 35.8614 152.767 35.8614C154.179 35.8614 155.439 36.1655 156.547 36.7738C157.655 37.3604 158.513 38.2076 159.122 39.3156C159.708 38.2728 160.555 37.4364 161.663 36.8064C162.793 36.1764 164.01 35.8614 165.313 35.8614ZM193.822 44.7577C193.822 45.4095 193.779 45.996 193.692 46.5174H180.494C180.603 47.8209 181.059 48.842 181.863 49.5807C182.667 50.3193 183.655 50.6886 184.828 50.6886C186.523 50.6886 187.729 49.9608 188.445 48.5053H193.366C192.845 50.2433 191.845 51.6771 190.368 52.8068C188.891 53.9148 187.077 54.4688 184.926 54.4688C183.188 54.4688 181.624 54.0886 180.233 53.3282C178.865 52.5461 177.789 51.449 177.007 50.0369C176.247 48.6248 175.867 46.9954 175.867 45.1488C175.867 43.2804 176.247 41.6402 177.007 40.2281C177.768 38.8159 178.832 37.7297 180.201 36.9693C181.57 36.209 183.145 35.8288 184.926 35.8288C186.642 35.8288 188.174 36.1981 189.521 36.9367C190.89 37.6754 191.943 38.729 192.682 40.0977C193.442 41.4447 193.822 42.998 193.822 44.7577ZM189.097 43.4542C189.075 42.2811 188.652 41.3469 187.826 40.6517C187.001 39.9348 185.991 39.5763 184.796 39.5763C183.666 39.5763 182.71 39.9239 181.928 40.6191C181.168 41.2926 180.701 42.2376 180.527 43.4542H189.097Z"/>
</mask>
<path d="M52.1792 58.1837L48.7249 54.0451C47.769 54.2841 46.7914 54.4036 45.792 54.4036C43.663 54.4036 41.7078 53.9039 39.9263 52.9046C38.1449 51.9052 36.7327 50.5257 35.6899 48.766C34.6471 46.9845 34.1258 44.975 34.1258 42.7373C34.1258 40.5214 34.6471 38.5335 35.6899 36.7738C36.7327 34.9924 38.1449 33.602 39.9263 32.6026C41.7078 31.6033 43.663 31.1036 45.792 31.1036C47.9428 31.1036 49.8981 31.6033 51.6578 32.6026C53.4392 33.602 54.8405 34.9924 55.8616 36.7738C56.9044 38.5335 57.4258 40.5214 57.4258 42.7373C57.4258 44.7577 56.9913 46.6043 56.1223 48.2772C55.275 49.9283 54.1127 51.2752 52.6354 52.318L57.8494 58.1837H52.1792ZM38.8183 42.7373C38.8183 44.258 39.1116 45.5941 39.6982 46.7455C40.2848 47.897 41.0995 48.7877 42.1423 49.4177C43.2068 50.026 44.4234 50.3302 45.792 50.3302C47.1607 50.3302 48.3664 50.026 49.4092 49.4177C50.452 48.7877 51.2667 47.897 51.8533 46.7455C52.4399 45.5941 52.7332 44.258 52.7332 42.7373C52.7332 41.2165 52.4399 39.8913 51.8533 38.7616C51.2667 37.6102 50.452 36.7303 49.4092 36.1221C48.3664 35.5138 47.1607 35.2096 45.792 35.2096C44.4234 35.2096 43.2068 35.5138 42.1423 36.1221C41.0995 36.7303 40.2848 37.6102 39.6982 38.7616C39.1116 39.8913 38.8183 41.2165 38.8183 42.7373ZM77.9268 36.1221V54.1755H73.332V51.8944C72.7454 52.6765 71.9742 53.2956 71.0183 53.7518C70.0841 54.1863 69.063 54.4036 67.955 54.4036C66.5429 54.4036 65.2937 54.1103 64.2075 53.5237C63.1212 52.9154 62.2631 52.0356 61.6331 50.8841C61.0248 49.711 60.7206 48.3206 60.7206 46.713V36.1221H65.2829V46.0612C65.2829 47.4951 65.6413 48.603 66.3583 49.3851C67.0752 50.1455 68.0528 50.5257 69.2911 50.5257C70.5512 50.5257 71.5397 50.1455 72.2566 49.3851C72.9735 48.603 73.332 47.4951 73.332 46.0612V36.1221H77.9268ZM84.7419 33.9713C83.9381 33.9713 83.2646 33.7214 82.7215 33.2218C82.2001 32.7004 81.9394 32.0595 81.9394 31.2991C81.9394 30.5387 82.2001 29.9087 82.7215 29.409C83.2646 28.8876 83.9381 28.6269 84.7419 28.6269C85.5457 28.6269 86.2083 28.8876 86.7297 29.409C87.2728 29.9087 87.5444 30.5387 87.5444 31.2991C87.5444 32.0595 87.2728 32.7004 86.7297 33.2218C86.2083 33.7214 85.5457 33.9713 84.7419 33.9713ZM86.9904 36.1221V54.1755H82.4282V36.1221H86.9904ZM95.6691 50.4279H103.718V54.1755H90.4877V50.4931L98.3739 39.8696H90.5203V36.1221H103.62V39.8044L95.6691 50.4279ZM130.495 31.4295V35.1118H124.433V54.1755H119.871V35.1118H113.81V31.4295H130.495ZM136.137 33.9713C135.333 33.9713 134.66 33.7214 134.117 33.2218C133.595 32.7004 133.335 32.0595 133.335 31.2991C133.335 30.5387 133.595 29.9087 134.117 29.409C134.66 28.8876 135.333 28.6269 136.137 28.6269C136.941 28.6269 137.604 28.8876 138.125 29.409C138.668 29.9087 138.94 30.5387 138.94 31.2991C138.94 32.0595 138.668 32.7004 138.125 33.2218C137.604 33.7214 136.941 33.9713 136.137 33.9713ZM138.386 36.1221V54.1755H133.823V36.1221H138.386ZM165.313 35.8614C167.529 35.8614 169.311 36.5457 170.658 37.9144C172.026 39.2613 172.711 41.1514 172.711 43.5846V54.1755H168.148V44.2037C168.148 42.7916 167.79 41.7162 167.073 40.9776C166.356 40.2172 165.378 39.837 164.14 39.837C162.902 39.837 161.913 40.2172 161.175 40.9776C160.458 41.7162 160.099 42.7916 160.099 44.2037V54.1755H155.537V44.2037C155.537 42.7916 155.179 41.7162 154.462 40.9776C153.745 40.2172 152.767 39.837 151.529 39.837C150.269 39.837 149.269 40.2172 148.531 40.9776C147.814 41.7162 147.455 42.7916 147.455 44.2037V54.1755H142.893V36.1221H147.455V38.3054C148.042 37.545 148.791 36.9476 149.704 36.5131C150.638 36.0786 151.659 35.8614 152.767 35.8614C154.179 35.8614 155.439 36.1655 156.547 36.7738C157.655 37.3604 158.513 38.2076 159.122 39.3156C159.708 38.2728 160.555 37.4364 161.663 36.8064C162.793 36.1764 164.01 35.8614 165.313 35.8614ZM193.822 44.7577C193.822 45.4095 193.779 45.996 193.692 46.5174H180.494C180.603 47.8209 181.059 48.842 181.863 49.5807C182.667 50.3193 183.655 50.6886 184.828 50.6886C186.523 50.6886 187.729 49.9608 188.445 48.5053H193.366C192.845 50.2433 191.845 51.6771 190.368 52.8068C188.891 53.9148 187.077 54.4688 184.926 54.4688C183.188 54.4688 181.624 54.0886 180.233 53.3282C178.865 52.5461 177.789 51.449 177.007 50.0369C176.247 48.6248 175.867 46.9954 175.867 45.1488C175.867 43.2804 176.247 41.6402 177.007 40.2281C177.768 38.8159 178.832 37.7297 180.201 36.9693C181.57 36.209 183.145 35.8288 184.926 35.8288C186.642 35.8288 188.174 36.1981 189.521 36.9367C190.89 37.6754 191.943 38.729 192.682 40.0977C193.442 41.4447 193.822 42.998 193.822 44.7577ZM189.097 43.4542C189.075 42.2811 188.652 41.3469 187.826 40.6517C187.001 39.9348 185.991 39.5763 184.796 39.5763C183.666 39.5763 182.71 39.9239 181.928 40.6191C181.168 41.2926 180.701 42.2376 180.527 43.4542H189.097Z" fill="black"/>
<path d="M52.1792 58.1837L48.7249 54.0451C47.769 54.2841 46.7914 54.4036 45.792 54.4036C43.663 54.4036 41.7078 53.9039 39.9263 52.9046C38.1449 51.9052 36.7327 50.5257 35.6899 48.766C34.6471 46.9845 34.1258 44.975 34.1258 42.7373C34.1258 40.5214 34.6471 38.5335 35.6899 36.7738C36.7327 34.9924 38.1449 33.602 39.9263 32.6026C41.7078 31.6033 43.663 31.1036 45.792 31.1036C47.9428 31.1036 49.8981 31.6033 51.6578 32.6026C53.4392 33.602 54.8405 34.9924 55.8616 36.7738C56.9044 38.5335 57.4258 40.5214 57.4258 42.7373C57.4258 44.7577 56.9913 46.6043 56.1223 48.2772C55.275 49.9283 54.1127 51.2752 52.6354 52.318L57.8494 58.1837H52.1792ZM38.8183 42.7373C38.8183 44.258 39.1116 45.5941 39.6982 46.7455C40.2848 47.897 41.0995 48.7877 42.1423 49.4177C43.2068 50.026 44.4234 50.3302 45.792 50.3302C47.1607 50.3302 48.3664 50.026 49.4092 49.4177C50.452 48.7877 51.2667 47.897 51.8533 46.7455C52.4399 45.5941 52.7332 44.258 52.7332 42.7373C52.7332 41.2165 52.4399 39.8913 51.8533 38.7616C51.2667 37.6102 50.452 36.7303 49.4092 36.1221C48.3664 35.5138 47.1607 35.2096 45.792 35.2096C44.4234 35.2096 43.2068 35.5138 42.1423 36.1221C41.0995 36.7303 40.2848 37.6102 39.6982 38.7616C39.1116 39.8913 38.8183 41.2165 38.8183 42.7373ZM77.9268 36.1221V54.1755H73.332V51.8944C72.7454 52.6765 71.9742 53.2956 71.0183 53.7518C70.0841 54.1863 69.063 54.4036 67.955 54.4036C66.5429 54.4036 65.2937 54.1103 64.2075 53.5237C63.1212 52.9154 62.2631 52.0356 61.6331 50.8841C61.0248 49.711 60.7206 48.3206 60.7206 46.713V36.1221H65.2829V46.0612C65.2829 47.4951 65.6413 48.603 66.3583 49.3851C67.0752 50.1455 68.0528 50.5257 69.2911 50.5257C70.5512 50.5257 71.5397 50.1455 72.2566 49.3851C72.9735 48.603 73.332 47.4951 73.332 46.0612V36.1221H77.9268ZM84.7419 33.9713C83.9381 33.9713 83.2646 33.7214 82.7215 33.2218C82.2001 32.7004 81.9394 32.0595 81.9394 31.2991C81.9394 30.5387 82.2001 29.9087 82.7215 29.409C83.2646 28.8876 83.9381 28.6269 84.7419 28.6269C85.5457 28.6269 86.2083 28.8876 86.7297 29.409C87.2728 29.9087 87.5444 30.5387 87.5444 31.2991C87.5444 32.0595 87.2728 32.7004 86.7297 33.2218C86.2083 33.7214 85.5457 33.9713 84.7419 33.9713ZM86.9904 36.1221V54.1755H82.4282V36.1221H86.9904ZM95.6691 50.4279H103.718V54.1755H90.4877V50.4931L98.3739 39.8696H90.5203V36.1221H103.62V39.8044L95.6691 50.4279ZM130.495 31.4295V35.1118H124.433V54.1755H119.871V35.1118H113.81V31.4295H130.495ZM136.137 33.9713C135.333 33.9713 134.66 33.7214 134.117 33.2218C133.595 32.7004 133.335 32.0595 133.335 31.2991C133.335 30.5387 133.595 29.9087 134.117 29.409C134.66 28.8876 135.333 28.6269 136.137 28.6269C136.941 28.6269 137.604 28.8876 138.125 29.409C138.668 29.9087 138.94 30.5387 138.94 31.2991C138.94 32.0595 138.668 32.7004 138.125 33.2218C137.604 33.7214 136.941 33.9713 136.137 33.9713ZM138.386 36.1221V54.1755H133.823V36.1221H138.386ZM165.313 35.8614C167.529 35.8614 169.311 36.5457 170.658 37.9144C172.026 39.2613 172.711 41.1514 172.711 43.5846V54.1755H168.148V44.2037C168.148 42.7916 167.79 41.7162 167.073 40.9776C166.356 40.2172 165.378 39.837 164.14 39.837C162.902 39.837 161.913 40.2172 161.175 40.9776C160.458 41.7162 160.099 42.7916 160.099 44.2037V54.1755H155.537V44.2037C155.537 42.7916 155.179 41.7162 154.462 40.9776C153.745 40.2172 152.767 39.837 151.529 39.837C150.269 39.837 149.269 40.2172 148.531 40.9776C147.814 41.7162 147.455 42.7916 147.455 44.2037V54.1755H142.893V36.1221H147.455V38.3054C148.042 37.545 148.791 36.9476 149.704 36.5131C150.638 36.0786 151.659 35.8614 152.767 35.8614C154.179 35.8614 155.439 36.1655 156.547 36.7738C157.655 37.3604 158.513 38.2076 159.122 39.3156C159.708 38.2728 160.555 37.4364 161.663 36.8064C162.793 36.1764 164.01 35.8614 165.313 35.8614ZM193.822 44.7577C193.822 45.4095 193.779 45.996 193.692 46.5174H180.494C180.603 47.8209 181.059 48.842 181.863 49.5807C182.667 50.3193 183.655 50.6886 184.828 50.6886C186.523 50.6886 187.729 49.9608 188.445 48.5053H193.366C192.845 50.2433 191.845 51.6771 190.368 52.8068C188.891 53.9148 187.077 54.4688 184.926 54.4688C183.188 54.4688 181.624 54.0886 180.233 53.3282C178.865 52.5461 177.789 51.449 177.007 50.0369C176.247 48.6248 175.867 46.9954 175.867 45.1488C175.867 43.2804 176.247 41.6402 177.007 40.2281C177.768 38.8159 178.832 37.7297 180.201 36.9693C181.57 36.209 183.145 35.8288 184.926 35.8288C186.642 35.8288 188.174 36.1981 189.521 36.9367C190.89 37.6754 191.943 38.729 192.682 40.0977C193.442 41.4447 193.822 42.998 193.822 44.7577ZM189.097 43.4542C189.075 42.2811 188.652 41.3469 187.826 40.6517C187.001 39.9348 185.991 39.5763 184.796 39.5763C183.666 39.5763 182.71 39.9239 181.928 40.6191C181.168 41.2926 180.701 42.2376 180.527 43.4542H189.097Z" fill="#0038FE" fill-opacity="0.22"/>
<path d="M52.1792 58.1837L51.6624 58.6151L51.8642 58.8569H52.1792V58.1837ZM48.7249 54.0451L49.2417 53.6138L48.9712 53.2897L48.5616 53.3921L48.7249 54.0451ZM39.9263 52.9046L40.2557 52.3175L39.9263 52.9046ZM35.6899 48.766L35.109 49.106L35.1108 49.1091L35.6899 48.766ZM35.6899 36.7738L36.2691 37.117L36.2709 37.1139L35.6899 36.7738ZM39.9263 32.6026L39.597 32.0155H39.597L39.9263 32.6026ZM51.6578 32.6026L51.3253 33.188L51.3284 33.1897L51.6578 32.6026ZM55.8616 36.7738L55.2775 37.1086L55.2824 37.117L55.8616 36.7738ZM56.1223 48.2772L55.5249 47.9668L55.5233 47.9698L56.1223 48.2772ZM52.6354 52.318L52.2472 51.768L51.6319 52.2023L52.1323 52.7652L52.6354 52.318ZM57.8494 58.1837V58.8569H59.3484L58.3525 57.7365L57.8494 58.1837ZM39.6982 46.7455L40.298 46.44L39.6982 46.7455ZM42.1423 49.4177L41.7941 49.9939L41.8012 49.9981L41.8083 50.0022L42.1423 49.4177ZM49.4092 49.4177L49.7485 49.9993L49.7574 49.9939L49.4092 49.4177ZM51.8533 46.7455L52.4531 47.0511L52.4531 47.0511L51.8533 46.7455ZM51.8533 38.7616L51.2535 39.0672L51.2559 39.0718L51.8533 38.7616ZM49.4092 36.1221L49.0701 36.7035L49.4092 36.1221ZM42.1423 36.1221L41.8083 35.5376L41.8031 35.5406L42.1423 36.1221ZM39.6982 38.7616L40.2956 39.0718L40.298 39.0672L39.6982 38.7616ZM52.696 57.7524L49.2417 53.6138L48.2081 54.4765L51.6624 58.6151L52.696 57.7524ZM48.5616 53.3921C47.6599 53.6175 46.7371 53.7304 45.792 53.7304V55.0768C46.8456 55.0768 47.8781 54.9507 48.8882 54.6982L48.5616 53.3921ZM45.792 53.7304C43.7733 53.7304 41.9322 53.258 40.2557 52.3175L39.597 53.4917C41.4833 54.5499 43.5527 55.0768 45.792 55.0768V53.7304ZM40.2557 52.3175C38.5776 51.3761 37.2516 50.0808 36.2691 48.4228L35.1108 49.1091C36.2139 50.9706 37.7121 52.4343 39.597 53.4917L40.2557 52.3175ZM36.2709 48.4259C35.2935 46.7562 34.7989 44.8658 34.7989 42.7373H33.4526C33.4526 45.0841 34.0008 47.2128 35.109 49.106L36.2709 48.4259ZM34.7989 42.7373C34.7989 40.6317 35.2929 38.7642 36.2691 37.117L35.1108 36.4306C34.0014 38.3028 33.4526 40.411 33.4526 42.7373H34.7989ZM36.2709 37.1139C37.2539 35.4345 38.5797 34.1299 40.2557 33.1897L39.597 32.0155C37.71 33.074 36.2115 34.5502 35.109 36.4337L36.2709 37.1139ZM40.2557 33.1897C41.9322 32.2492 43.7733 31.7768 45.792 31.7768V30.4304C43.5527 30.4304 41.4833 30.9573 39.597 32.0155L40.2557 33.1897ZM45.792 31.7768C47.8338 31.7768 49.6734 32.2498 51.3254 33.188L51.9902 32.0172C50.1228 30.9567 48.0518 30.4304 45.792 30.4304V31.7768ZM51.3284 33.1897C53.0031 34.1292 54.3166 35.4321 55.2775 37.1085L56.4456 36.439C55.3643 34.5526 53.8753 33.0747 51.9871 32.0155L51.3284 33.1897ZM55.2824 37.117C56.2586 38.7642 56.7526 40.6317 56.7526 42.7373H58.0989C58.0989 40.411 57.5501 38.3028 56.4407 36.4306L55.2824 37.117ZM56.7526 42.7373C56.7526 44.6576 56.3405 46.3967 55.5249 47.9668L56.7196 48.5875C57.642 46.812 58.0989 44.8578 58.0989 42.7373H56.7526ZM55.5233 47.9698C54.7243 49.5269 53.6333 50.7896 52.2472 51.768L53.0236 52.868C54.5921 51.7608 55.8256 50.3296 56.7212 48.5845L55.5233 47.9698ZM52.1323 52.7652L57.3463 58.631L58.3525 57.7365L53.1385 51.8708L52.1323 52.7652ZM57.8494 57.5106H52.1792V58.8569H57.8494V57.5106ZM38.1452 42.7373C38.1452 44.3455 38.4558 45.7897 39.0984 47.0511L40.298 46.44C39.7675 45.3986 39.4915 44.1706 39.4915 42.7373H38.1452ZM39.0984 47.0511C39.7384 48.3074 40.6372 49.2949 41.7941 49.9939L42.4904 48.8415C41.5617 48.2805 40.8312 47.4866 40.298 46.44L39.0984 47.0511ZM41.8083 50.0022C42.9859 50.6751 44.3201 51.0033 45.792 51.0033V49.657C44.5266 49.657 43.4276 49.3769 42.4762 48.8332L41.8083 50.0022ZM45.792 51.0033C47.2637 51.0033 48.5895 50.6752 49.7484 49.9992L49.0701 48.8362C48.1434 49.3768 47.0578 49.657 45.792 49.657V51.0033ZM49.7574 49.9939C50.9143 49.2949 51.8131 48.3074 52.4531 47.0511L51.2535 46.44C50.7203 47.4866 49.9898 48.2805 49.0611 48.8415L49.7574 49.9939ZM52.4531 47.0511C53.0957 45.7897 53.4063 44.3455 53.4063 42.7373H52.06C52.06 44.1706 51.784 45.3986 51.2535 46.44L52.4531 47.0511ZM53.4063 42.7373C53.4063 41.1295 53.0959 39.6939 52.4507 38.4514L51.2559 39.0718C51.7839 40.0887 52.06 41.3036 52.06 42.7373H53.4063ZM52.4531 38.4561C51.8122 37.198 50.9107 36.2186 49.7484 35.5406L49.0701 36.7035C49.9934 37.2421 50.7212 38.0224 51.2535 39.0672L52.4531 38.4561ZM49.7484 35.5406C48.5895 34.8645 47.2637 34.5364 45.792 34.5364V35.8828C47.0578 35.8828 48.1434 36.163 49.0701 36.7035L49.7484 35.5406ZM45.792 34.5364C44.3201 34.5364 42.9859 34.8646 41.8083 35.5376L42.4762 36.7065C43.4276 36.1629 44.5266 35.8828 45.792 35.8828V34.5364ZM41.8031 35.5406C40.6408 36.2186 39.7393 37.198 39.0984 38.4561L40.298 39.0672C40.8303 38.0224 41.5581 37.2421 42.4814 36.7035L41.8031 35.5406ZM39.1008 38.4514C38.4556 39.6939 38.1452 41.1295 38.1452 42.7373H39.4915C39.4915 41.3036 39.7676 40.0887 40.2956 39.0718L39.1008 38.4514ZM77.9268 36.1221H78.6V35.4489H77.9268V36.1221ZM77.9268 54.1755V54.8486H78.6V54.1755H77.9268ZM73.332 54.1755H72.6588V54.8486H73.332V54.1755ZM73.332 51.8944H74.0051V49.8749L72.7934 51.4905L73.332 51.8944ZM71.0183 53.7518L71.3022 54.3622L71.3082 54.3594L71.0183 53.7518ZM64.2075 53.5237L63.8785 54.1111L63.8876 54.1161L64.2075 53.5237ZM61.6331 50.8841L61.0355 51.194L61.0389 51.2007L61.0425 51.2073L61.6331 50.8841ZM60.7206 36.1221V35.4489H60.0475V36.1221H60.7206ZM65.2829 36.1221H65.956V35.4489H65.2829V36.1221ZM66.3583 49.3851L65.862 49.84L65.8685 49.8469L66.3583 49.3851ZM72.2566 49.3851L72.7464 49.847L72.7528 49.84L72.2566 49.3851ZM73.332 36.1221V35.4489H72.6588V36.1221H73.332ZM77.2536 36.1221V54.1755H78.6V36.1221H77.2536ZM77.9268 53.5023H73.332V54.8486H77.9268V53.5023ZM74.0051 54.1755V51.8944H72.6588V54.1755H74.0051ZM72.7934 51.4905C72.2774 52.1785 71.5945 52.7309 70.7283 53.1443L71.3082 54.3594C72.3538 53.8603 73.2134 53.1744 73.8705 52.2983L72.7934 51.4905ZM70.7344 53.1415C69.8957 53.5315 68.9725 53.7304 67.955 53.7304V55.0768C69.1536 55.0768 70.2725 54.8411 71.3022 54.3622L70.7344 53.1415ZM67.955 53.7304C66.6384 53.7304 65.502 53.4577 64.5273 52.9314L63.8876 54.1161C65.0855 54.7629 66.4475 55.0768 67.955 55.0768V53.7304ZM64.5364 52.9364C63.5665 52.3933 62.7964 51.6079 62.2236 50.561L61.0425 51.2073C61.7298 52.4633 62.6759 53.4376 63.8786 54.1111L64.5364 52.9364ZM62.2307 50.5743C61.6817 49.5155 61.3938 48.2358 61.3938 46.713H60.0475C60.0475 48.4054 60.3679 49.9065 61.0355 51.194L62.2307 50.5743ZM61.3938 46.713V36.1221H60.0475V46.713H61.3938ZM60.7206 36.7952H65.2829V35.4489H60.7206V36.7952ZM64.6097 36.1221V46.0612H65.956V36.1221H64.6097ZM64.6097 46.0612C64.6097 47.6034 64.9964 48.8956 65.862 49.84L66.8545 48.9303C66.2863 48.3104 65.956 47.3867 65.956 46.0612H64.6097ZM65.8685 49.8469C66.736 50.7671 67.9046 51.1989 69.2911 51.1989V49.8525C68.201 49.8525 67.4143 49.5239 66.8481 48.9233L65.8685 49.8469ZM69.2911 51.1989C70.6954 51.1989 71.8765 50.7695 72.7464 49.8469L71.7668 48.9233C71.2028 49.5215 70.4069 49.8525 69.2911 49.8525V51.1989ZM72.7528 49.84C73.6185 48.8956 74.0051 47.6034 74.0051 46.0612H72.6588C72.6588 47.3867 72.3285 48.3104 71.7604 48.9303L72.7528 49.84ZM74.0051 46.0612V36.1221H72.6588V46.0612H74.0051ZM73.332 36.7952H77.9268V35.4489H73.332V36.7952ZM82.7215 33.2218L82.2455 33.6978L82.2554 33.7077L82.2657 33.7172L82.7215 33.2218ZM82.7215 29.409L83.1872 29.8951L83.1877 29.8947L82.7215 29.409ZM86.7297 29.409L86.2537 29.885L86.2636 29.895L86.2739 29.9044L86.7297 29.409ZM86.7297 33.2218L87.1955 33.7078L87.1959 33.7074L86.7297 33.2218ZM86.9904 36.1221H87.6636V35.4489H86.9904V36.1221ZM86.9904 54.1755V54.8486H87.6636V54.1755H86.9904ZM82.4282 54.1755H81.755V54.8486H82.4282V54.1755ZM82.4282 36.1221V35.4489H81.755V36.1221H82.4282ZM84.7419 33.2981C84.0905 33.2981 83.5846 33.1011 83.1772 32.7264L82.2657 33.7172C82.9446 34.3418 83.7856 34.6444 84.7419 34.6444V33.2981ZM83.1975 32.7458C82.8067 32.355 82.6125 31.8872 82.6125 31.2991H81.2662C81.2662 32.2318 81.5935 33.0458 82.2455 33.6978L83.1975 32.7458ZM82.6125 31.2991C82.6125 30.7114 82.806 30.2604 83.1872 29.8951L82.2557 28.923C81.5942 29.557 81.2662 30.3661 81.2662 31.2991H82.6125ZM83.1877 29.8947C83.5964 29.5023 84.0989 29.3001 84.7419 29.3001V27.9538C83.7772 27.9538 82.9328 28.273 82.2553 28.9234L83.1877 29.8947ZM84.7419 29.3001C85.3849 29.3001 85.8706 29.5019 86.2537 29.885L87.2057 28.933C86.5461 28.2734 85.7065 27.9538 84.7419 27.9538V29.3001ZM86.2739 29.9044C86.6738 30.2723 86.8712 30.7205 86.8712 31.2991H88.2176C88.2176 30.3569 87.8719 29.5451 87.1855 28.9136L86.2739 29.9044ZM86.8712 31.2991C86.8712 31.8782 86.6729 32.3431 86.2635 32.7362L87.1959 33.7074C87.8727 33.0576 88.2176 32.2407 88.2176 31.2991H86.8712ZM86.264 32.7358C85.8825 33.1013 85.3935 33.2981 84.7419 33.2981V34.6444C85.6979 34.6444 86.5342 34.3416 87.1955 33.7078L86.264 32.7358ZM86.3173 36.1221V54.1755H87.6636V36.1221H86.3173ZM86.9904 53.5023H82.4282V54.8486H86.9904V53.5023ZM83.1014 54.1755V36.1221H81.755V54.1755H83.1014ZM82.4282 36.7952H86.9904V35.4489H82.4282V36.7952ZM95.6691 50.4279L95.1302 50.0246L94.3244 51.1011H95.6691V50.4279ZM103.718 50.4279H104.391V49.7548H103.718V50.4279ZM103.718 54.1755V54.8486H104.391V54.1755H103.718ZM90.4877 54.1755H89.8145V54.8486H90.4877V54.1755ZM90.4877 50.4931L89.9472 50.0919L89.8145 50.2705V50.4931H90.4877ZM98.3739 39.8696L98.9144 40.2708L99.712 39.1964H98.3739V39.8696ZM90.5203 39.8696H89.8471V40.5428H90.5203V39.8696ZM90.5203 36.1221V35.4489H89.8471V36.1221H90.5203ZM103.62 36.1221H104.294V35.4489H103.62V36.1221ZM103.62 39.8044L104.159 40.2078L104.294 40.0285V39.8044H103.62ZM95.6691 51.1011H103.718V49.7548H95.6691V51.1011ZM103.045 50.4279V54.1755H104.391V50.4279H103.045ZM103.718 53.5023H90.4877V54.8486H103.718V53.5023ZM91.1609 54.1755V50.4931H89.8145V54.1755H91.1609ZM91.0282 50.8943L98.9144 40.2708L97.8334 39.4684L89.9472 50.0919L91.0282 50.8943ZM98.3739 39.1964H90.5203V40.5428H98.3739V39.1964ZM91.1935 39.8696V36.1221H89.8471V39.8696H91.1935ZM90.5203 36.7952H103.62V35.4489H90.5203V36.7952ZM102.947 36.1221V39.8044H104.294V36.1221H102.947ZM103.082 39.4011L95.1302 50.0246L96.208 50.8313L104.159 40.2078L103.082 39.4011ZM130.495 31.4295H131.168V30.7563H130.495V31.4295ZM130.495 35.1118V35.785H131.168V35.1118H130.495ZM124.433 35.1118V34.4387H123.76V35.1118H124.433ZM124.433 54.1755V54.8486H125.107V54.1755H124.433ZM119.871 54.1755H119.198V54.8486H119.871V54.1755ZM119.871 35.1118H120.544V34.4387H119.871V35.1118ZM113.81 35.1118H113.137V35.785H113.81V35.1118ZM113.81 31.4295V30.7563H113.137V31.4295H113.81ZM129.821 31.4295V35.1118H131.168V31.4295H129.821ZM130.495 34.4387H124.433V35.785H130.495V34.4387ZM123.76 35.1118V54.1755H125.107V35.1118H123.76ZM124.433 53.5023H119.871V54.8486H124.433V53.5023ZM120.544 54.1755V35.1118H119.198V54.1755H120.544ZM119.871 34.4387H113.81V35.785H119.871V34.4387ZM114.483 35.1118V31.4295H113.137V35.1118H114.483ZM113.81 32.1026H130.495V30.7563H113.81V32.1026ZM134.117 33.2218L133.641 33.6978L133.651 33.7077L133.661 33.7172L134.117 33.2218ZM134.117 29.409L134.582 29.8951L134.583 29.8947L134.117 29.409ZM138.125 29.409L137.649 29.885L137.659 29.895L137.669 29.9044L138.125 29.409ZM138.125 33.2218L138.591 33.7078L138.591 33.7074L138.125 33.2218ZM138.386 36.1221H139.059V35.4489H138.386V36.1221ZM138.386 54.1755V54.8486H139.059V54.1755H138.386ZM133.823 54.1755H133.15V54.8486H133.823V54.1755ZM133.823 36.1221V35.4489H133.15V36.1221H133.823ZM136.137 33.2981C135.486 33.2981 134.98 33.1011 134.572 32.7264L133.661 33.7172C134.34 34.3418 135.181 34.6444 136.137 34.6444V33.2981ZM134.593 32.7458C134.202 32.355 134.008 31.8872 134.008 31.2991H132.661C132.661 32.2318 132.989 33.0458 133.641 33.6978L134.593 32.7458ZM134.008 31.2991C134.008 30.7114 134.201 30.2604 134.582 29.8951L133.651 28.923C132.989 29.557 132.661 30.3661 132.661 31.2991H134.008ZM134.583 29.8947C134.992 29.5023 135.494 29.3001 136.137 29.3001V27.9538C135.172 27.9538 134.328 28.273 133.65 28.9234L134.583 29.8947ZM136.137 29.3001C136.78 29.3001 137.266 29.5019 137.649 29.885L138.601 28.933C137.941 28.2734 137.102 27.9538 136.137 27.9538V29.3001ZM137.669 29.9044C138.069 30.2723 138.266 30.7205 138.266 31.2991H139.613C139.613 30.3569 139.267 29.5451 138.581 28.9136L137.669 29.9044ZM138.266 31.2991C138.266 31.8782 138.068 32.3431 137.659 32.7362L138.591 33.7074C139.268 33.0576 139.613 32.2407 139.613 31.2991H138.266ZM137.659 32.7358C137.278 33.1013 136.789 33.2981 136.137 33.2981V34.6444C137.093 34.6444 137.929 34.3416 138.591 33.7078L137.659 32.7358ZM137.712 36.1221V54.1755H139.059V36.1221H137.712ZM138.386 53.5023H133.823V54.8486H138.386V53.5023ZM134.497 54.1755V36.1221H133.15V54.1755H134.497ZM133.823 36.7952H138.386V35.4489H133.823V36.7952ZM170.658 37.9144L170.178 38.3866L170.185 38.3942L170.658 37.9144ZM172.711 54.1755V54.8486H173.384V54.1755H172.711ZM168.148 54.1755H167.475V54.8486H168.148V54.1755ZM167.073 40.9776L166.583 41.4394L166.59 41.4464L167.073 40.9776ZM161.175 40.9776L160.692 40.5085L160.692 40.5087L161.175 40.9776ZM160.099 54.1755V54.8486H160.772V54.1755H160.099ZM155.537 54.1755H154.864V54.8486H155.537V54.1755ZM154.462 40.9776L153.972 41.4394L153.979 41.4464L154.462 40.9776ZM148.531 40.9776L148.048 40.5085L148.048 40.5087L148.531 40.9776ZM147.455 54.1755V54.8486H148.129V54.1755H147.455ZM142.893 54.1755H142.22V54.8486H142.893V54.1755ZM142.893 36.1221V35.4489H142.22V36.1221H142.893ZM147.455 36.1221H148.129V35.4489H147.455V36.1221ZM147.455 38.3054H146.782V40.2801L147.988 38.7166L147.455 38.3054ZM149.704 36.5131L149.42 35.9027L149.414 35.9053L149.704 36.5131ZM156.547 36.7738L156.223 37.364L156.232 37.3687L156.547 36.7738ZM159.122 39.3156L158.532 39.6396L159.115 40.7014L159.708 39.6456L159.122 39.3156ZM161.663 36.8064L161.336 36.2184L161.331 36.2212L161.663 36.8064ZM165.313 36.5345C167.379 36.5345 168.977 37.1665 170.178 38.3865L171.137 37.4422C169.644 35.9249 167.679 35.1882 165.313 35.1882V36.5345ZM170.185 38.3942C171.393 39.5829 172.037 41.281 172.037 43.5846H173.384C173.384 41.0218 172.659 38.9397 171.13 37.4346L170.185 38.3942ZM172.037 43.5846V54.1755H173.384V43.5846H172.037ZM172.711 53.5023H168.148V54.8486H172.711V53.5023ZM168.822 54.1755V44.2037H167.475V54.1755H168.822ZM168.822 44.2037C168.822 42.6828 168.434 41.4136 167.556 40.5087L166.59 41.4464C167.145 42.0188 167.475 42.9004 167.475 44.2037H168.822ZM167.563 40.5158C166.695 39.5956 165.527 39.1638 164.14 39.1638V40.5102C165.23 40.5102 166.017 40.8388 166.583 41.4394L167.563 40.5158ZM164.14 39.1638C162.753 39.1638 161.579 39.5956 160.692 40.5085L161.657 41.4466C162.248 40.8388 163.051 40.5102 164.14 40.5102V39.1638ZM160.692 40.5087C159.813 41.4136 159.426 42.6828 159.426 44.2037H160.772C160.772 42.9004 161.102 42.0188 161.658 41.4464L160.692 40.5087ZM159.426 44.2037V54.1755H160.772V44.2037H159.426ZM160.099 53.5023H155.537V54.8486H160.099V53.5023ZM156.21 54.1755V44.2037H154.864V54.1755H156.21ZM156.21 44.2037C156.21 42.6828 155.823 41.4136 154.945 40.5087L153.979 41.4464C154.534 42.0188 154.864 42.9004 154.864 44.2037H156.21ZM154.951 40.5158C154.084 39.5956 152.915 39.1638 151.529 39.1638V40.5102C152.619 40.5102 153.406 40.8388 153.972 41.4394L154.951 40.5158ZM151.529 39.1638C150.124 39.1638 148.937 39.5933 148.048 40.5085L149.014 41.4466C149.602 40.8411 150.414 40.5102 151.529 40.5102V39.1638ZM148.048 40.5087C147.169 41.4136 146.782 42.6828 146.782 44.2037H148.129C148.129 42.9004 148.458 42.0188 149.014 41.4464L148.048 40.5087ZM146.782 44.2037V54.1755H148.129V44.2037H146.782ZM147.455 53.5023H142.893V54.8486H147.455V53.5023ZM143.566 54.1755V36.1221H142.22V54.1755H143.566ZM142.893 36.7952H147.455V35.4489H142.893V36.7952ZM146.782 36.1221V38.3054H148.129V36.1221H146.782ZM147.988 38.7166C148.507 38.0444 149.171 37.5123 149.993 37.1209L149.414 35.9053C148.412 36.3829 147.577 37.0457 146.922 37.8942L147.988 38.7166ZM149.988 37.1235C150.826 36.7334 151.75 36.5345 152.767 36.5345V35.1882C151.569 35.1882 150.45 35.4238 149.42 35.9027L149.988 37.1235ZM152.767 36.5345C154.079 36.5345 155.226 36.8162 156.223 37.3639L156.871 36.1837C155.653 35.5148 154.279 35.1882 152.767 35.1882V36.5345ZM156.232 37.3687C157.223 37.8933 157.986 38.6459 158.532 39.6396L159.712 38.9916C159.041 37.7694 158.087 36.8275 156.862 36.1789L156.232 37.3687ZM159.708 39.6456C160.231 38.7164 160.987 37.9653 161.996 37.3916L161.331 36.2212C160.124 36.9075 159.185 37.8293 158.535 38.9856L159.708 39.6456ZM161.991 37.3943C163.02 36.8206 164.124 36.5345 165.313 36.5345V35.1882C163.896 35.1882 162.566 35.5321 161.336 36.2185L161.991 37.3943ZM193.692 46.5174V47.1906H194.262L194.356 46.6281L193.692 46.5174ZM180.494 46.5174V45.8443H179.763L179.823 46.5733L180.494 46.5174ZM181.863 49.5807L181.407 50.0763L181.863 49.5807ZM188.445 48.5053V47.8321H188.027L187.842 48.2078L188.445 48.5053ZM193.366 48.5053L194.011 48.6987L194.271 47.8321H193.366V48.5053ZM190.368 52.8068L190.772 53.3454L190.777 53.3415L190.368 52.8068ZM180.233 53.3282L179.899 53.9128L179.91 53.9188L180.233 53.3282ZM177.007 50.0369L176.415 50.356L176.418 50.363L177.007 50.0369ZM177.007 40.2281L176.415 39.9089L177.007 40.2281ZM180.201 36.9693L180.528 37.5578L180.201 36.9693ZM189.521 36.9367L189.197 37.527L189.201 37.5291L189.521 36.9367ZM192.682 40.0977L192.089 40.4175L192.096 40.4286L192.682 40.0977ZM189.097 43.4542V44.1274H189.783L189.77 43.4418L189.097 43.4542ZM187.826 40.6517L187.385 41.16L187.393 41.1666L187.826 40.6517ZM181.928 40.6191L182.374 41.123L182.375 41.1222L181.928 40.6191ZM180.527 43.4542L179.86 43.359L179.751 44.1274H180.527V43.4542ZM193.149 44.7577C193.149 45.3806 193.108 45.9292 193.028 46.4068L194.356 46.6281C194.45 46.0629 194.496 45.4384 194.496 44.7577H193.149ZM193.692 45.8443H180.494V47.1906H193.692V45.8443ZM179.823 46.5733C179.943 48.01 180.455 49.2014 181.407 50.0763L182.318 49.085C181.663 48.4826 181.263 47.6319 181.165 46.4615L179.823 46.5733ZM181.407 50.0763C182.345 50.9381 183.5 51.3618 184.828 51.3618V50.0155C183.81 50.0155 182.988 49.7005 182.318 49.085L181.407 50.0763ZM184.828 51.3618C185.773 51.3618 186.624 51.1581 187.351 50.7191C188.08 50.279 188.643 49.628 189.049 48.8027L187.842 48.2078C187.531 48.8381 187.132 49.2788 186.656 49.5665C186.177 49.8552 185.578 50.0155 184.828 50.0155V51.3618ZM188.445 49.1784H193.366V47.8321H188.445V49.1784ZM192.721 48.3118C192.242 49.9105 191.327 51.2262 189.959 52.2721L190.777 53.3415C192.364 52.128 193.448 50.576 194.011 48.6987L192.721 48.3118ZM189.964 52.2683C188.622 53.275 186.956 53.7956 184.926 53.7956V55.1419C187.198 55.1419 189.16 54.5545 190.772 53.3453L189.964 52.2683ZM184.926 53.7956C183.29 53.7956 181.838 53.4387 180.556 52.7376L179.91 53.9188C181.409 54.7385 183.086 55.1419 184.926 55.1419V53.7956ZM180.567 52.7437C179.308 52.0243 178.32 51.0178 177.596 49.7107L176.418 50.363C177.259 51.8802 178.421 53.0679 179.899 53.9127L180.567 52.7437ZM177.6 49.7177C176.9 48.4176 176.54 46.901 176.54 45.1488H175.194C175.194 47.0898 175.594 48.8319 176.415 50.356L177.6 49.7177ZM176.54 45.1488C176.54 43.3734 176.901 41.8462 177.6 40.5472L176.415 39.9089C175.593 41.4342 175.194 43.1875 175.194 45.1488H176.54ZM177.6 40.5472C178.301 39.2455 179.274 38.254 180.528 37.5578L179.874 36.3809C178.39 37.2053 177.234 38.3864 176.415 39.9089L177.6 40.5472ZM180.528 37.5578C181.783 36.8602 183.243 36.5019 184.926 36.5019V35.1556C183.046 35.1556 181.356 35.5577 179.874 36.3809L180.528 37.5578ZM184.926 36.5019C186.543 36.5019 187.961 36.8489 189.197 37.527L189.845 36.3465C188.387 35.5473 186.742 35.1556 184.926 35.1556V36.5019ZM189.201 37.5291C190.454 38.2054 191.413 39.1643 192.089 40.4174L193.274 39.778C192.473 38.2938 191.325 37.1453 189.841 36.3443L189.201 37.5291ZM192.096 40.4286C192.792 41.6614 193.149 43.0977 193.149 44.7577H194.496C194.496 42.8982 194.093 41.2279 193.268 39.7668L192.096 40.4286ZM189.77 43.4418C189.745 42.0935 189.248 40.9689 188.26 40.1368L187.393 41.1666C188.056 41.7249 188.406 42.4686 188.424 43.4667L189.77 43.4418ZM188.268 40.1434C187.308 39.31 186.137 38.9031 184.796 38.9031V40.2495C185.845 40.2495 186.694 40.5596 187.385 41.16L188.268 40.1434ZM184.796 38.9031C183.515 38.9031 182.396 39.3021 181.481 40.116L182.375 41.1222C183.024 40.5457 183.817 40.2495 184.796 40.2495V38.9031ZM181.482 40.1152C180.578 40.9156 180.052 42.019 179.86 43.359L181.193 43.5494C181.349 42.4563 181.757 41.6696 182.374 41.123L181.482 40.1152ZM180.527 44.1274H189.097V42.781H180.527V44.1274Z" fill="white" mask="url(#path-8-outside-1_4_409)"/>
</svg>
